# xmcd
#
# Track frame offsets:
# 150
# 22219
# 42339
# 59500
# 75112
# 93769
# 113548
# 138711
# 165489
# 188206
# 211154
# 233586
# 259493
# 278624
# 297001
#
# Disc length: 4231 seconds
#
#
# Revision: 0
# Processed by: cddbd v1.5.2PL0 Copyright (c) Steve Scherf et al.
# Submitted via: FreeRIP 2.944 
#
DISCID=c810850f
DTITLE=LAmour-Sackett02 - Far-Blue-Mt2
DYEAR=1976
DGENRE=Booty Bass
TTITLE0=201
TTITLE1=202
TTITLE2=203
TTITLE3=204
TTITLE4=205
TTITLE5=206
TTITLE6=207
TTITLE7=208
TTITLE8=209
TTITLE9=210
TTITLE10=211
TTITLE11=212
TTITLE12=213
TTITLE13=214
TTITLE14=215
EXTD=To the Far Blue Mountains by Louis A'mour\nread by John Curless - Sacketts 1976\nRandom House Inc 8 CDs
EXTT0=
EXTT1=
EXTT2=
EXTT3=
EXTT4=
EXTT5=
EXTT6=
EXTT7=
EXTT8=
EXTT9=
EXTT10=
EXTT11=
EXTT12=
EXTT13=
EXTT14=
PLAYORDER=
